<svg width="233" height="31" viewBox="0 0 233 31" fill="none" xmlns="http://www.w3.org/2000/svg">
<path d="M0.330078 0.84906H17.0801C17.1013 0.84906 17.1229 0.858058 17.1387 0.873474C17.1541 0.888746 17.1602 0.906162 17.1602 0.921326V6.20453C17.1602 6.21969 17.1541 6.23711 17.1387 6.25238C17.1229 6.2678 17.1013 6.27679 17.0801 6.27679H7.37598C7.06351 6.27679 6.7959 6.52977 6.7959 6.84906V11.1752C6.7959 11.4945 7.0635 11.7475 7.37598 11.7475H13.4629C13.484 11.7476 13.5048 11.7566 13.5205 11.7719C13.536 11.7872 13.542 11.8046 13.542 11.8198V17.0639C13.542 17.0791 13.536 17.0965 13.5205 17.1118C13.5048 17.1271 13.484 17.1361 13.4629 17.1362H7.37598C7.06349 17.1362 6.7959 17.3892 6.7959 17.7084V23.3725C6.7959 23.6918 7.06351 23.9448 7.37598 23.9448H17.3701C17.3913 23.9448 17.412 23.9538 17.4277 23.9692C17.4434 23.9845 17.4502 24.0017 17.4502 24.017V29.3002C17.4502 29.3155 17.4434 29.3327 17.4277 29.3481C17.412 29.3635 17.3913 29.3725 17.3701 29.3725H0.339844C0.318633 29.3725 0.298004 29.3635 0.282227 29.3481C0.266607 29.3327 0.25977 29.3155 0.259766 29.3002L0.25 29.2983V0.921326C0.25 0.906035 0.256756 0.88884 0.272461 0.873474C0.288239 0.858058 0.308867 0.84906 0.330078 0.84906Z" stroke="#F0E8D8" stroke-width="0.5"/>
<path d="M27.9048 0.858887H34.7007C34.7378 0.858887 34.768 0.880603 34.7789 0.915527V0.916504L42.2525 29.3306H42.2535C42.2597 29.3567 42.2536 29.3779 42.2418 29.3931C42.2301 29.4079 42.2091 29.4214 42.1763 29.4214H35.5699C35.5494 29.4213 35.5294 29.4146 35.5132 29.3999L35.5054 29.3579L34.5064 24.4849C34.4523 24.2207 34.2085 24.021 33.9312 24.021H28.6138C28.344 24.0212 28.0932 24.2041 28.0386 24.4868L27.0797 29.3599V29.3608C27.0739 29.3901 27.0442 29.4214 26.9947 29.4214H20.3892C20.3549 29.4214 20.3314 29.4066 20.3189 29.3911C20.3074 29.3768 20.3034 29.361 20.3091 29.3413L20.3111 29.3345L27.8267 0.916504L27.8257 0.915527C27.8366 0.880471 27.8677 0.858887 27.9048 0.858887ZM31.481 8.01221L30.9839 8.01709C30.7354 10.6593 30.1381 13.8003 29.4175 17.6724L29.2476 18.5903L29.1929 18.8862H33.3199L33.2681 18.5923L33.1021 17.6567V17.647L33.0982 17.6255C32.4169 13.7975 31.7797 10.6579 31.481 8.01221Z" stroke="#F0E8D8" stroke-width="0.5"/>
<path d="M40.6276 0.84906H47.4938C47.5182 0.849077 47.5377 0.857108 47.5495 0.866638C47.56 0.875173 47.5638 0.884428 47.5651 0.893982V0.894958L47.5681 0.907654L49.0866 9.15961V9.16058C49.8059 12.9775 50.7041 18.4474 50.9929 21.3852L51.4909 21.3823C51.7086 18.8132 52.4227 14.3054 53.0534 10.6596L53.3171 9.15863L54.7946 0.918396L54.7956 0.919373C54.803 0.88135 54.8296 0.858826 54.8698 0.858826H61.696C61.7493 0.858877 61.7815 0.906838 61.7731 0.947693L54.5485 29.3715C54.5404 29.4009 54.5187 29.4202 54.4909 29.4272L54.4899 29.4213H47.904C47.8753 29.4213 47.8502 29.4084 47.8356 29.3862L47.8249 29.3618L40.5505 0.93988C40.5407 0.898608 40.5734 0.84906 40.6276 0.84906Z" stroke="#F0E8D8" stroke-width="0.5"/>
<path d="M94.9408 0.829529H101.178C101.208 0.829637 101.232 0.842086 101.247 0.859802C101.263 0.877443 101.266 0.895838 101.263 0.910583H101.262L101.261 0.916443L96.2347 29.3315C96.227 29.3711 96.1893 29.4017 96.1508 29.4018H95.5365L95.557 29.4213H90.1537C90.1247 29.4213 90.0961 29.4039 90.0804 29.3784L90.0697 29.351L89.181 23.8989C88.461 19.4917 87.7338 14.6503 87.5648 12.1254H87.0658C86.8968 14.641 86.2189 19.4543 85.4496 23.8959V23.8969L84.5209 29.351C84.5131 29.3907 84.4755 29.4213 84.4369 29.4213H78.5004C78.4618 29.4213 78.4242 29.3907 78.4164 29.351H78.4154L73.389 0.935974L73.3881 0.930115L73.389 0.905701C73.3914 0.897289 73.3961 0.8881 73.4037 0.879333C73.4191 0.861638 73.4435 0.849069 73.473 0.84906H79.7094C79.755 0.84906 79.7873 0.883917 79.7914 0.913513L80.431 5.94281V5.94379C80.9002 9.55305 81.4091 14.4885 81.6185 18.1332L82.1176 18.1391C82.3418 15.4364 82.8024 11.9859 83.2504 8.90472L83.6849 5.98773L84.4447 0.909607V0.903748C84.4459 0.8953 84.453 0.879096 84.472 0.862732C84.4915 0.846127 84.5124 0.839355 84.5267 0.839294H90.1136C90.17 0.839294 90.1929 0.874586 90.1957 0.893982L90.4437 0.862732L90.1957 0.894958L90.1967 0.901794L91.0062 5.97992V5.98187C91.6052 9.59069 92.2745 14.5248 92.5736 18.1293L93.0717 18.1235C93.281 14.4799 93.8401 9.5854 94.2601 5.93109L94.8597 0.902771C94.8648 0.860725 94.8993 0.829714 94.9408 0.829529Z" stroke="#F0E8D8" stroke-width="0.5"/>
<path d="M108.404 0.84906H115.15C115.211 0.849145 115.247 0.88362 115.258 0.924255V0.926208L122.724 29.2856L122.724 29.2866C122.74 29.3438 122.701 29.4115 122.616 29.4116H116.069C116.036 29.4115 116.005 29.3959 115.983 29.3725L115.974 29.3286L114.985 24.5043C114.929 24.2098 114.666 24.0211 114.381 24.0209H109.113C108.864 24.021 108.641 24.1707 108.544 24.395L108.511 24.4955L108.509 24.5063L107.558 29.3305V29.3334C107.552 29.3678 107.517 29.4116 107.444 29.4116H100.898C100.814 29.4116 100.775 29.3439 100.79 29.2866V29.2856L108.296 0.927185V0.924255C108.305 0.88737 108.349 0.84906 108.404 0.84906ZM111.95 8.01215L111.453 8.01703C111.204 10.6593 110.607 13.8002 109.887 17.6723L109.717 18.5903L109.662 18.8862H113.789L113.737 18.5922L113.571 17.6567V17.6469L113.567 17.6254C112.886 13.7975 112.249 10.6578 111.95 8.01215Z" stroke="#F0E8D8" stroke-width="0.5"/>
<path d="M134.24 0.409546C136.438 0.409568 138.086 0.787588 139.473 1.50134C140.861 2.21533 142.007 3.27507 143.189 4.67126H143.19C143.204 4.68901 143.211 4.71293 143.209 4.73669C143.208 4.75939 143.199 4.77547 143.187 4.7865L138.754 8.66931C138.744 8.67688 138.724 8.68643 138.692 8.68298C138.658 8.67928 138.63 8.66391 138.616 8.64783H138.617C137.687 7.57419 137.016 6.8375 136.344 6.37537C135.654 5.90057 134.969 5.72011 134.03 5.72009C132.519 5.72009 131.651 6.84235 131.651 8.05017C131.651 8.87051 131.862 9.54114 132.485 10.1674C133.09 10.7753 134.073 11.3301 135.581 11.9711C138.564 13.2561 140.572 14.4827 141.836 15.9681C143.091 17.4422 143.634 19.1961 143.634 21.5853C143.634 24.2364 142.633 26.3032 140.973 27.7113C139.359 29.0799 137.102 29.8395 134.49 29.8851V29.8705H134.24C132.021 29.8705 130.271 29.4353 128.783 28.6351C127.292 27.8339 126.048 26.658 124.851 25.1508L124.85 25.1498L124.836 25.1244C124.834 25.1148 124.832 25.1041 124.833 25.0931C124.835 25.0711 124.845 25.0565 124.854 25.0492L124.86 25.0443L129.223 21.2006C129.257 21.1728 129.322 21.1763 129.354 21.2133C130.305 22.2998 131.18 23.1349 132.001 23.6996C132.823 24.2643 133.607 24.5697 134.37 24.5697C135.153 24.5697 135.855 24.3725 136.365 23.9379C136.881 23.498 137.168 22.8417 137.168 21.9955C137.168 21.1795 137.045 20.457 136.455 19.7543C135.878 19.0684 134.877 18.4246 133.19 17.6937H133.189C130.242 16.432 128.266 15.2653 127.024 13.8705C125.794 12.4889 125.265 10.8612 125.265 8.62634C125.265 4.21094 128.674 0.409546 134.24 0.409546Z" stroke="#F0E8D8" stroke-width="0.5"/>
<path d="M147.712 0.84906H154.209C154.271 0.849281 154.309 0.893736 154.309 0.940857V11.1069C154.309 11.4313 154.571 11.6987 154.908 11.6987H160.205C160.523 11.6987 160.805 11.4503 160.805 11.1069V0.940857C160.805 0.894175 160.843 0.84906 160.905 0.84906H167.401C167.463 0.849132 167.501 0.89367 167.501 0.940857V29.3295C167.501 29.3762 167.464 29.4213 167.401 29.4213H160.905C160.843 29.4213 160.805 29.3767 160.805 29.3295V17.8354C160.805 17.511 160.542 17.2436 160.205 17.2436H154.908C154.59 17.2436 154.309 17.492 154.309 17.8354V29.3295C154.309 29.3761 154.271 29.4211 154.209 29.4213H147.712C147.65 29.4212 147.612 29.3767 147.612 29.3295V0.940857C147.612 0.894226 147.649 0.849158 147.712 0.84906Z" stroke="#F0E8D8" stroke-width="0.5"/>
<path d="M190.183 0.390015C193.198 0.390015 195.207 1.21472 196.61 2.66638C198.023 4.1281 198.853 6.25703 199.434 8.93298V8.93591C199.441 8.96666 199.428 9.00211 199.401 9.0238L199.369 9.04041L193.16 10.6888C193.142 10.6935 193.116 10.6914 193.09 10.6742C193.076 10.6654 193.067 10.6548 193.06 10.6449L193.049 10.6176C192.805 9.1234 192.552 7.95156 192.137 7.15271C191.926 6.7481 191.666 6.42496 191.332 6.20447C190.995 5.98259 190.601 5.87634 190.143 5.87634C189.523 5.87638 188.978 6.0372 188.519 6.40369C188.065 6.76689 187.716 7.31507 187.452 8.05017C186.926 9.51224 186.705 11.7949 186.705 15.101C186.705 18.4072 186.926 20.7098 187.464 22.1918C187.734 22.937 188.091 23.4943 188.558 23.8646C189.03 24.238 189.591 24.4036 190.233 24.4037C190.661 24.4037 191.04 24.3315 191.376 24.1547C191.712 23.9774 191.986 23.7046 192.222 23.3363C192.687 22.6134 193.027 21.4804 193.405 19.8451L193.406 19.8412C193.409 19.8255 193.423 19.8024 193.452 19.7855C193.466 19.7773 193.48 19.7726 193.493 19.7709L193.528 19.7738L199.459 21.7543C199.498 21.7689 199.527 21.8114 199.514 21.8705C198.85 24.3903 197.903 26.386 196.432 27.7533C194.984 29.0997 193.001 29.8607 190.203 29.8783L190.195 29.8705H190.094C186.682 29.8705 184.14 28.6034 182.439 26.1605C180.728 23.7023 179.849 20.0241 179.849 15.1693C179.849 10.3199 180.832 6.62144 182.606 4.14197C184.373 1.67399 186.941 0.390055 190.183 0.390015Z" stroke="#F0E8D8" stroke-width="0.5"/>
<path d="M213.075 0.390015C216.342 0.390015 218.918 1.54665 220.686 3.93396C222.464 6.33394 223.449 10.0098 223.449 15.0912C223.449 20.1722 222.454 23.8677 220.66 26.2875C218.876 28.6936 216.279 29.8683 212.99 29.8695C209.72 29.8683 207.156 28.7242 205.4 26.3451C203.634 23.9515 202.661 20.2759 202.661 15.1693C202.661 10.0637 203.657 6.36801 205.444 3.95447C207.223 1.55351 209.808 0.390023 213.075 0.390015ZM213.045 5.87634C212.446 5.87639 211.903 6.00688 211.434 6.3363C210.967 6.6648 210.597 7.17405 210.31 7.88708C209.742 9.30183 209.477 11.589 209.477 15.101C209.477 18.6146 209.763 20.9208 210.347 22.3549C210.64 23.0768 211.016 23.5947 211.483 23.9301C211.953 24.2668 212.493 24.4036 213.085 24.4037C213.675 24.4037 214.213 24.2721 214.68 23.9427C215.144 23.6147 215.516 23.107 215.805 22.3949C216.378 20.9813 216.653 18.6967 216.653 15.1888C216.653 11.68 216.367 9.37406 215.784 7.93884C215.49 7.21627 215.115 6.6979 214.647 6.36169C214.244 6.07196 213.79 5.92957 213.295 5.8949V5.87634H213.045Z" stroke="#F0E8D8" stroke-width="0.5"/>
<path d="M228.926 22.3893C230.064 22.3893 231.019 22.7744 231.689 23.4196C232.358 24.0643 232.756 24.983 232.756 26.0798C232.756 28.2555 231.168 29.8141 228.926 29.8141C226.68 29.8139 225.051 28.2517 225.051 26.0798C225.051 23.9107 226.662 22.3896 228.926 22.3893Z" stroke="#F0E8D8" stroke-width="0.5"/>
</svg>
